HIERARCHY
ROOT Hips
{
	OFFSET	0.00	0.00	0.00
	CHANNELS 6 Xposition Yposition Zposition Zrotation Xrotation Yrotation
	JOINT LeftUpLeg
	{
		OFFSET	 0.126116	-0.014019	-0.065224
		CHANNELS 3 Zrotation Xrotation Yrotation
		JOINT LeftLeg
		{
			OFFSET	 0.000000	 0.000000	 0.569914
			CHANNELS 3 Zrotation Xrotation Yrotation
			JOINT LeftFoot
			{
				OFFSET	 0.000000	 0.000000	 0.544423
				CHANNELS 3 Zrotation Xrotation Yrotation
				JOINT LeftToeBase
				{
					OFFSET	 0.000000	 0.000000	 0.207117
					CHANNELS 3 Zrotation Xrotation Yrotation
					End Site
					{
						OFFSET	 0.000000	 0.000000	 0.207117
					}
				}
			}
		}
	}
	JOINT RightUpLeg
	{
		OFFSET	-0.124023	-0.008373	-0.065224
		CHANNELS 3 Zrotation Xrotation Yrotation
		JOINT RightLeg
		{
			OFFSET	 0.000000	 0.000000	 0.570047
			CHANNELS 3 Zrotation Xrotation Yrotation
			JOINT RightFoot
			{
				OFFSET	 0.000000	 0.000000	 0.544354
				CHANNELS 3 Zrotation Xrotation Yrotation
				JOINT RightToeBase
				{
					OFFSET	 0.000000	 0.000000	 0.207540
					CHANNELS 3 Zrotation Xrotation Yrotation
					End Site
					{
						OFFSET	 0.000000	 0.000000	 0.207540
					}
				}
			}
		}
	}
	JOINT Spine
	{
		OFFSET	 0.000184	-0.007763	 0.117403
		CHANNELS 3 Zrotation Xrotation Yrotation
		JOINT Spine1
		{
			OFFSET	 0.000000	 0.000000	 0.137269
			CHANNELS 3 Zrotation Xrotation Yrotation
			JOINT Spine2
			{
				OFFSET	 0.000000	 0.000000	 0.156879
				CHANNELS 3 Zrotation Xrotation Yrotation
				JOINT LeftShoulder
				{
					OFFSET	 0.080501	-0.002496	 0.160144
					CHANNELS 3 Zrotation Xrotation Yrotation
					JOINT LeftArm
					{
						OFFSET	 0.000000	 0.000000	 0.164363
						CHANNELS 3 Zrotation Xrotation Yrotation
						JOINT LeftForeArm
						{
							OFFSET	 0.000000	 0.000000	 0.364576
							CHANNELS 3 Zrotation Xrotation Yrotation
							JOINT LeftHand
							{
								OFFSET	 0.000000	 0.000000	 0.360812
								CHANNELS 3 Zrotation Xrotation Yrotation
								JOINT LeftHandIndex1
								{
									OFFSET	 0.000000	 0.000000	 0.086006
									CHANNELS 3 Zrotation Xrotation Yrotation
									JOINT LeftHandIndex2
									{
										OFFSET	 0.000000	 0.000000	 0.047236
										CHANNELS 3 Zrotation Xrotation Yrotation
										JOINT LeftHandIndex3
										{
											OFFSET	-0.004284	-0.000551	 0.038166
											CHANNELS 3 Zrotation Xrotation Yrotation
											End Site
											{
												OFFSET	-0.004284	-0.000551	 0.038166
											}
										}
									}
								}
							}
						}
					}
				}
				JOINT Neck
				{
					OFFSET	 0.000000	 0.000000	 0.176489
					CHANNELS 3 Zrotation Xrotation Yrotation
					JOINT Head
					{
						OFFSET	 0.000000	-0.001747	 0.077940
						CHANNELS 3 Zrotation Xrotation Yrotation
						End Site
						{
							OFFSET	 0.000000	-0.001747	 0.077940
						}
					}
				}
				JOINT RightShoulder
				{
					OFFSET	-0.080363	 0.000306	 0.159706
					CHANNELS 3 Zrotation Xrotation Yrotation
					JOINT RightArm
					{
						OFFSET	 0.000000	 0.000000	 0.164196
						CHANNELS 3 Zrotation Xrotation Yrotation
						JOINT RightForeArm
						{
							OFFSET	 0.000000	 0.000000	 0.365611
							CHANNELS 3 Zrotation Xrotation Yrotation
							JOINT RightHand
							{
								OFFSET	 0.000000	 0.000000	 0.360648
								CHANNELS 3 Zrotation Xrotation Yrotation
								JOINT RightHandIndex1
								{
									OFFSET	 0.000000	 0.000000	 0.069977
									CHANNELS 3 Zrotation Xrotation Yrotation
									JOINT RightHandIndex2
									{
										OFFSET	 0.000000	 0.000000	 0.052305
										CHANNELS 3 Zrotation Xrotation Yrotation
										JOINT RightHandIndex3
										{
											OFFSET	 0.009002	-0.000782	 0.042196
											CHANNELS 3 Zrotation Xrotation Yrotation
											End Site
											{
												OFFSET	 0.009002	-0.000782	 0.042196
											}
										}
									}
								}
							}
						}
					}
				}
			}
		}
	}
}
MOTION
Frames:    8
Frame Time: 0.03333334
-0.058487	-2.249328	 1.200861	 4.544055	-1.587464	-3.493454	 7.934073	-10.559510	-172.689300	 0.664314	-38.752140	 0.161091	 58.998760	 81.568830	-62.816410	-2.370583	 31.416360	-0.065435	-11.739880	-30.579940	-175.319500	 10.310550	-51.521530	 8.706651	 9.178020	 72.797500	-3.909854	 2.358301	 33.098190	 0.105507	-9.422151	 8.838460	 1.152799	 0.920930	 3.021412	 2.310032	-6.415865	-2.790005	-2.983448	-93.848660	 58.929340	 175.583800	 14.876750	 33.637070	-41.118180	-16.462520	 1.838977	-6.710643	-6.056553	-7.769556	-7.575120	-4.869271	 19.244110	-2.786470	-3.887568	 21.395410	 2.208890	-4.808254	 5.545551	 0.146962	-0.102243	-5.043694	 0.170714	-8.437184	 1.969117	 2.310172	 89.807150	 61.613680	-179.940400	-19.895070	 51.690200	 9.607573	 13.508240	 2.708853	 18.495900	 1.700542	 5.817181	 0.009577	 6.299241	 25.446020	-0.559445	 1.806009	 45.335150	-6.922131	 0.439185	 24.656940	 3.612648
-0.059529	-2.273618	 1.200048	 5.133398	-1.300655	-3.483436	 7.142036	-9.564224	-172.968000	 0.998480	-38.353630	 0.400716	 62.145430	 82.075780	-66.229530	-2.369537	 31.592340	-0.069409	-13.114790	-32.119160	-175.765100	 10.283110	-48.662040	 8.334771	 10.130050	 74.840800	-5.393862	 2.358895	 33.010400	 0.103469	-9.685109	 8.696850	 1.086160	 0.859632	 2.980592	 2.327689	-6.507031	-2.870382	-2.970465	-93.957600	 59.016330	 175.340600	 14.305420	 32.263430	-41.829720	-17.006660	 1.837148	-6.700060	-5.677798	-7.644916	-8.512765	-4.869000	 19.249640	-2.786539	-3.883202	 21.451370	 2.204459	-4.808270	 5.545386	 0.146975	-0.069631	-5.082566	 0.187379	-8.412153	 1.940906	 2.172966	 89.772870	 61.657220	 179.978000	-19.695720	 52.340690	 8.331071	 13.294970	 2.672763	 18.700670	 1.568986	 6.322594	-0.163755	 6.292411	 24.699300	-0.535555	 1.909252	 44.507990	-7.014271	 0.562906	 24.115260	 3.549749
-0.060560	-2.297933	 1.198587	 5.625953	-0.848916	-3.511909	 6.516990	-8.743968	-173.180800	 1.185370	-38.004750	 0.512710	 65.538520	 82.570110	-69.721300	-2.368695	 31.732080	-0.072583	-14.596420	-33.699990	-176.351600	 10.472300	-45.407070	 8.047852	 10.098780	 76.384070	-5.981489	 2.358990	 32.997310	 0.103162	-9.786366	 8.391555	 0.998389	 0.798479	 2.976462	 2.428103	-6.602865	-2.974503	-3.007347	-94.081550	 59.018440	 175.075700	 13.571300	 30.895570	-42.436800	-17.156230	 1.829926	-6.683074	-5.124306	-7.724669	-8.932843	-4.865067	 19.356570	-2.794841	-3.876127	 21.541840	 2.197263	-4.805239	 5.581153	 0.144885	-0.044369	-5.101012	 0.223544	-8.417367	 1.920157	 2.095752	 89.725620	 61.714350	 179.865000	-19.469070	 52.969120	 6.996282	 12.875530	 2.599282	 19.071440	 1.273768	 6.773572	-0.377913	 6.279825	 23.801660	-0.548112	 2.013375	 43.645620	-7.106761	 0.749691	 23.287490	 3.456611
-0.061585	-2.320322	 1.196732	 6.066935	-0.444893	-3.544459	 5.949385	-7.994783	-173.379300	 1.353116	-37.715920	 0.612031	 69.203340	 83.030830	-73.469330	-2.367920	 31.858180	-0.075445	-15.946730	-34.928610	-176.979000	 10.510330	-42.159130	 7.617011	 11.844890	 78.067290	-8.412252	 2.359081	 32.984030	 0.102849	-9.860991	 8.118283	 0.919438	 0.747133	 2.978352	 2.521833	-6.688953	-3.069780	-3.042650	-94.192700	 59.020180	 174.838300	 12.891870	 29.675620	-42.972470	-17.266310	 1.822494	-6.667945	-4.655134	-7.809624	-9.305666	-4.861484	 19.453370	-2.802318	-3.869735	 21.623430	 2.190769	-4.802479	 5.613634	 0.142981	-0.021810	-5.117716	 0.256032	-8.422207	 1.901547	 2.026844	 89.683060	 61.765930	 179.762900	-19.232660	 53.514420	 5.754293	 12.489390	 2.529408	 19.470520	 1.003696	 7.161918	-0.569500	 6.268386	 22.994640	-0.559708	 2.103927	 42.871860	-7.186804	 0.915555	 22.542350	 3.375782
-0.062465	-2.345825	 1.194202	 6.296454	-0.018922	-3.750460	 5.615819	-6.949569	-173.438600	 1.469613	-37.202300	 0.675358	 75.742000	 83.554630	-80.070120	-2.366538	 32.082550	-0.080549	-16.574510	-36.096630	-177.393100	 10.545490	-38.291110	 7.060592	 12.324020	 77.680510	-9.677332	 2.360437	 32.782520	 0.098176	-9.737195	 7.757808	 1.017061	 0.714828	 3.173586	 2.585875	-6.757641	-3.212387	-3.080615	-94.296710	 58.976940	 174.623000	 12.060660	 28.365620	-43.608120	-17.695000	 1.815306	-6.648909	-4.529415	-8.170675	-9.009904	-4.852571	 19.661310	-2.812028	-3.858762	 21.762910	 2.179622	-4.795606	 5.694544	 0.138237	-0.012063	-5.156229	 0.290359	-8.451085	 1.878042	 2.010988	 89.609480	 61.856440	 179.585200	-18.856470	 54.087050	 4.485054	 11.775390	 2.366697	 19.772860	 0.568972	 7.595267	-1.129863	 6.250490	 21.945710	-0.595877	 2.195292	 42.067860	-7.267187	 1.147277	 21.485630	 3.265892
-0.063518	-2.371570	 1.191257	 6.509340	 0.378263	-3.952715	 5.280683	-5.838579	-173.518000	 1.577311	-36.635400	 0.730804	 82.833110	 83.997330	-87.213650	-2.364902	 32.341420	-0.086477	-17.046500	-37.008560	-177.799100	 10.505420	-34.372030	 6.415141	 14.050860	 77.598410	-12.147700	 2.361099	 32.682170	 0.095864	-9.604856	 7.408579	 1.114776	 0.678563	 3.360383	 2.639678	-6.820161	-3.343819	-3.111869	-94.394470	 58.934530	 174.421300	 11.267210	 27.170280	-44.184740	-18.089030	 1.806388	-6.626874	-4.433023	-8.513364	-8.713076	-4.843476	 19.868310	-2.820791	-3.847481	 21.905890	 2.168162	-4.788342	 5.780049	 0.133213	-0.001809	-5.195671	 0.322163	-8.475998	 1.853187	 1.992180	 89.538480	 61.942470	 179.412900	-18.425660	 54.594560	 3.312465	 11.058940	 2.184710	 19.842250	 0.148412	 7.983294	-1.706271	 6.231893	 20.896430	-0.632896	 2.290399	 41.205070	-7.350431	 1.375533	 20.426960	 3.161186
-0.064798	-2.398183	 1.188009	 6.579675	 0.578506	-4.135258	 5.022887	-4.370209	-173.656200	 1.630062	-35.886400	 0.748830	 87.338810	 84.364800	-91.701070	-2.361075	 32.926010	-0.099950	-16.571530	-37.615630	-177.874500	 10.140400	-30.824940	 5.634593	 23.902920	 80.109260	-22.531710	 2.355885	 33.446410	 0.113632	-9.457131	 7.125787	 1.241878	 0.647876	 3.743647	 2.618146	-6.841300	-3.506465	-3.103908	-94.447440	 58.892930	 174.315200	 10.365000	 26.230920	-44.712180	-18.390180	 1.795290	-6.603161	-4.487482	-8.600803	-8.403628	-4.832294	 20.088600	-2.821968	-3.832566	 22.094170	 2.153011	-4.776913	 5.914150	 0.125308	 0.013852	-5.247439	 0.335102	-8.469718	 1.812952	 1.949017	 89.480610	 61.997860	 179.272000	-17.803000	 55.004280	 2.242818	 10.239400	 1.963810	 19.499950	-0.197799	 8.185033	-2.511333	 6.209545	 19.733310	-0.680770	 2.444978	 39.743850	-7.484740	 1.626603	 19.242490	 3.050191
-0.066477	-2.426121	 1.183794	 6.672146	 0.742697	-4.313850	 4.718822	-2.764412	-173.832900	 1.699722	-35.108720	 0.774797	 92.002100	 84.729280	-96.353140	-2.355812	 33.685730	-0.117652	-15.993930	-38.792050	-177.907000	 9.992402	-28.368860	 5.154825	 38.954440	 81.962200	-38.079030	 2.349668	 34.299090	 0.133751	-9.330564	 6.909242	 1.361405	 0.610460	 4.060747	 2.612968	-6.858501	-3.661179	-3.103731	-94.496830	 58.863790	 174.215000	 9.494740	 25.421970	-45.221530	-18.610540	 1.781429	-6.576439	-4.535923	-8.800550	-8.195721	-4.825484	 20.293320	-2.843577	-3.817000	 22.289480	 2.137208	-4.763988	 6.065716	 0.116333	 0.035146	-5.301054	 0.346744	-8.452808	 1.783345	 1.881378	 89.425340	 62.035390	 179.137200	-17.095380	 55.349040	 1.082435	 9.406222	 1.746809	 19.092610	-0.508552	 8.295151	-3.314205	 6.187650	 18.525090	-0.717262	 2.599137	 38.209740	-7.617366	 1.882468	 18.014200	 2.941718
